<?xml version="1.0" encoding="UTF-8"?>
<svg version="1.1" xmlns="http://www.w3.org/2000/svg" width="1024" height="1024">
<path d="M0 0 C337.92 0 675.84 0 1024 0 C1024 337.92 1024 675.84 1024 1024 C686.08 1024 348.16 1024 0 1024 C0 686.08 0 348.16 0 0 Z " fill="#FEFEFE" transform="translate(0,0)"/>
<path d="M0 0 C2 2 2 2 2.40867615 4.80271912 C1.8742388 8.98389372 0.46514054 10.23931318 -2.53881836 13.15649414 C-3.02179382 13.63392059 -3.50476929 14.11134705 -4.00238037 14.60324097 C-5.05155927 15.63631234 -6.107702 16.66234845 -7.16990471 17.682024 C-8.86218652 19.30660519 -10.53555995 20.94873855 -12.20545959 22.59629822 C-15.16369603 25.5089477 -18.13765763 28.40492465 -21.11706543 31.29589844 C-25.85548601 35.89419675 -30.57970854 40.50657141 -35.28482246 45.13894463 C-36.91586825 46.73716636 -38.55945971 48.32157238 -40.20457458 49.9052887 C-54.47374102 63.80461587 -62.43379855 77.81591833 -64.375 97.875 C-63.90998297 111.82551081 -56.74545411 123.76433701 -47.4921875 133.671875 C-37.06647297 143.41125723 -25.23111937 147.37146795 -11.15234375 147.21484375 C7.74951392 145.92661305 20.96649094 133.40372618 33.53466225 120.52397156 C35.21520491 118.803387 36.90368712 117.09095534 38.5945282 115.38049316 C43.39321113 110.52428135 48.18128584 105.6577899 52.95532227 100.77734375 C55.89340145 97.77490454 58.84348978 94.78472076 61.80153465 91.80195618 C62.92137902 90.66786462 64.03653155 89.52911995 65.14681435 88.38566589 C66.69249694 86.79436576 68.25293963 85.2190689 69.81762695 83.64648438 C70.70013626 82.7468396 71.58264557 81.84719482 72.49189758 80.92028809 C75 79 75 79 77.71696472 78.61218262 C80 79 80 79 81.7109375 80.55859375 C83.36321592 83.68790894 83.97046257 86.58482037 84.625 90.0625 C84.86476563 91.29097656 85.10453125 92.51945312 85.3515625 93.78515625 C91.47864512 130.66866972 84.4510264 168.24370101 63 199 C59.28944828 204.0815652 55.41126637 209.03465254 51.54882812 214.00097656 C34.54321809 235.94957918 23.64089024 258.37385269 23.74171448 286.6933136 C23.73803877 287.91396537 23.73436307 289.13461713 23.73057598 290.39225835 C23.72238226 293.74533192 23.72294252 297.09818945 23.72730291 300.45125568 C23.72979709 304.08123466 23.7206879 307.71118707 23.71292114 311.34115601 C23.70091815 317.62206302 23.69577042 323.90294474 23.69503975 330.18386269 C23.69370894 339.28116925 23.67855204 348.37841486 23.65954458 357.4756998 C23.62875136 372.2597526 23.60456421 387.04380695 23.58666992 401.82788086 C23.58559724 402.711354 23.58452456 403.59482714 23.58341938 404.5050722 C23.57160312 414.35819781 23.56139603 424.21132403 23.55297852 434.06445312 C23.54990447 437.63663739 23.54681569 441.20882163 23.54370117 444.78100586 C23.54293583 445.66248381 23.54217049 446.54396176 23.54138196 447.45215116 C23.52827455 462.18008078 23.50360091 476.90796617 23.46995777 491.63586301 C23.44973674 500.70360994 23.43936882 509.77126207 23.44194698 518.83903172 C23.44298656 525.05818985 23.43327308 531.27727325 23.41530795 537.49640528 C23.40532211 541.07704533 23.40007052 544.65751991 23.40807533 548.23816872 C23.47632263 582.03276903 23.47632263 582.03276903 16.75 596.3125 C16.44698975 596.97636719 16.14397949 597.64023437 15.83178711 598.32421875 C7.59551634 615.82230473 -6.06550328 627.11315326 -24 634 C-39.15572211 639.25885297 -54.46749939 640.31729799 -70.3671875 640.265625 C-71.86410586 640.26697716 -73.36102379 640.26892223 -74.85794067 640.27142334 C-77.95530486 640.274336 -81.05255198 640.27019505 -84.14990234 640.26074219 C-88.12217164 640.24920866 -92.09417472 640.25601768 -96.06643486 640.26788712 C-99.13927242 640.27509214 -102.21204599 640.27282651 -105.28488541 640.26763153 C-106.75134437 640.26629846 -108.21780916 640.26793077 -109.68426132 640.27259064 C-111.71772912 640.27764832 -113.75121744 640.26857782 -115.78466797 640.25878906 C-116.93998016 640.25719788 -118.09529236 640.25560669 -119.28561401 640.25396729 C-122 640 -122 640 -124 638 C-124.42604731 634.98347417 -124.41218978 633.55876665 -122.58227539 631.078125 C-121.92735107 630.47484375 -121.27242676 629.8715625 -120.59765625 629.25 C-119.87634521 628.56607178 -119.15503418 627.88214355 -118.41186523 627.17749023 C-117.63657471 626.45891846 -116.86128418 625.74034668 -116.0625 625 C-104.42579868 613.7665923 -96.67256916 601.66922 -90 587 C-89.58878906 586.113125 -89.17757812 585.22625 -88.75390625 584.3125 C-81.62510399 567.00365717 -81.40852243 547.59247781 -81.46655273 529.19360352 C-81.45947428 526.79420446 -81.45072128 524.39480986 -81.44044495 521.99542236 C-81.41815849 515.54696468 -81.42084155 509.09875482 -81.42976642 502.65027356 C-81.4346467 498.60661412 -81.4312798 494.56298818 -81.42579842 490.51933098 C-81.42489676 489.84343816 -81.42399511 489.16754534 -81.42306613 488.47117091 C-81.42121452 487.09715747 -81.41935195 485.72314404 -81.41747857 484.34913062 C-81.40098545 471.52989027 -81.40954668 458.7107607 -81.42646415 445.89152711 C-81.44115575 434.22012028 -81.42652524 422.54897103 -81.39769398 410.87759734 C-81.36814843 398.82517965 -81.35737138 386.77288018 -81.36687618 374.72042793 C-81.3678985 373.35178024 -81.36889312 371.98313252 -81.3698597 370.61448479 C-81.37033609 369.94147566 -81.37081248 369.26846653 -81.3713033 368.57506319 C-81.37344741 363.88423545 -81.36348093 359.19355544 -81.34908867 354.50274849 C-81.33055989 348.16172581 -81.33689814 341.82117698 -81.36128807 335.48017883 C-81.36624159 333.17257859 -81.36295116 330.86494113 -81.35013962 328.55737114 C-81.13881224 287.17474641 -96.17275312 252.12745648 -125.1875 222.73046875 C-127.22451866 220.69566287 -129.27620184 218.67600605 -131.328125 216.65625 C-134.75579103 213.2486288 -137.93050159 209.73052045 -141 206 C-141.84175781 204.99710938 -142.68351563 203.99421875 -143.55078125 202.9609375 C-167.11900955 174.34384895 -175.3989381 140.9111429 -172.80957031 104.30810547 C-170.00828965 75.40917949 -156.68906674 49.91512584 -137 29 C-136.19175781 28.09507812 -136.19175781 28.09507812 -135.3671875 27.171875 C-105.4378206 -5.01347433 -40.04658026 -19.98283904 0 0 Z " fill="#38A035" transform="translate(783,212)"/>
<path d="M0 0 C7.23760847 3.70067763 13.07030207 8.51931723 18.66796875 14.36328125 C20.52432511 16.25736843 22.44690968 17.97993893 24.46484375 19.69921875 C28.57484455 23.22898414 32.33883898 27.05791117 36.14453125 30.91015625 C38.87767778 33.60837439 41.73321993 36.1083935 44.6484375 38.60546875 C48.96897558 42.4304924 52.93990403 46.63085957 56.96484375 50.76171875 C59.4094452 53.14811541 61.91713662 55.42393211 64.46484375 57.69921875 C68.04929919 60.90189787 71.48628475 64.18765623 74.8515625 67.6171875 C77.96156511 70.67127995 81.27726647 73.4934709 84.58984375 76.32421875 C83.30005254 79.89931964 81.76589191 82.62395105 79.46484375 85.63671875 C72.65964294 95.19506097 67.98472943 105.94143807 63.71484375 116.82421875 C63.42867187 117.55318359 63.1425 118.28214844 62.84765625 119.03320312 C61.05715262 123.73757925 59.72738791 128.42063032 58.58984375 133.32421875 C55.55112232 131.9557685 53.35950929 130.38252561 50.9453125 128.09375 C50.26791016 127.45501953 49.59050781 126.81628906 48.89257812 126.15820312 C48.19455078 125.49111328 47.49652344 124.82402344 46.77734375 124.13671875 C46.09091797 123.48896484 45.40449219 122.84121094 44.69726562 122.17382812 C41.35848461 119.01193617 38.06452984 115.81354353 34.82421875 112.55078125 C32.51104102 110.22379743 30.16335352 108.00212086 27.65234375 105.88671875 C24.84408028 103.46804096 22.19013782 100.96522192 19.58984375 98.32421875 C16.41021981 95.09501003 13.09676234 92.1171494 9.6484375 89.1796875 C7.37236875 87.12820239 5.31374788 84.93091822 3.21484375 82.69921875 C-1.48132732 77.97879895 -6.7285228 73.78900185 -13.57421875 73.109375 C-21.85239985 73.73263574 -26.96622621 78.61977338 -32.39453125 84.265625 C-34.22980344 86.1400212 -36.10911485 87.86557708 -38.09765625 89.57421875 C-41.73543433 92.70456609 -45.26647571 95.93667371 -48.78515625 99.19921875 C-56.21667916 106.08370792 -63.72790286 112.8692938 -71.36328125 119.52734375 C-77.95022882 125.30977864 -84.41210256 131.23165343 -90.86914062 137.15820312 C-104.91817167 150.05301339 -104.91817167 150.05301339 -110.22265625 154.63671875 C-114.67467453 158.50125421 -118.96203563 162.54044031 -123.2722168 166.5612793 C-126.91335044 169.95200859 -130.59679409 173.27593176 -134.36328125 176.52734375 C-137.57196727 179.34412918 -140.70383153 182.24453853 -143.84594727 185.13500977 C-147.84096719 188.80836745 -151.86679442 192.44582507 -155.90625 196.0703125 C-158.62623516 198.51872348 -161.33111186 200.98321954 -164.03515625 203.44921875 C-167.11325191 206.25179256 -170.20317495 209.0338975 -173.34765625 211.76171875 C-177.244179 215.14826716 -181.04368453 218.6375987 -184.84301758 222.13208008 C-190.45185099 227.2890295 -196.12018359 232.37885861 -201.796875 237.4609375 C-206.58015864 241.75125793 -211.32183033 246.0824211 -216.03515625 250.44921875 C-220.07954563 254.19557598 -224.15885069 257.88466805 -228.328125 261.4921875 C-231.54507418 264.32286136 -234.68986305 267.23188891 -237.84350586 270.13256836 C-242.66619507 274.56658814 -247.53365294 278.94947784 -252.41015625 283.32421875 C-256.08796155 286.63283424 -256.08796155 286.63283424 -259.73961329 289.97021002 C-262.41015625 292.32421875 -262.41015625 292.32421875 -265.04318738 294.24906689 C-268.89607899 297.20459533 -271.88270878 299.59177279 -273.32716131 304.33619964 C-273.67591031 307.94990025 -273.70538914 311.44313806 -273.62615967 315.07298279 C-273.6319605 316.4570326 -273.64215241 317.84106972 -273.65632749 319.22505909 C-273.68246235 323.01001502 -273.64656701 326.79218316 -273.60013056 330.57684982 C-273.56094489 334.66473371 -273.57974544 338.75241016 -273.59130859 342.84040833 C-273.60492544 350.83938252 -273.56567858 358.8372638 -273.50898203 366.83601426 C-273.4452451 376.14765866 -273.43647918 385.4591113 -273.43059817 394.77094234 C-273.41847628 411.37870334 -273.3602704 427.98597541 -273.27441406 444.59350586 C-273.19112598 460.71819012 -273.13452335 476.84264491 -273.11035156 492.9675293 C-273.10885513 493.9616905 -273.10735871 494.95585171 -273.10581693 495.98013901 C-273.09986863 499.97592375 -273.09399404 503.97170859 -273.08824436 507.96749362 C-273.06280016 525.17952964 -273.01527848 542.39151427 -272.96496785 559.60349289 C-272.95700075 562.3934937 -272.94956468 565.18349549 -272.94225979 567.97349811 C-272.91624453 577.73357635 -272.8836457 587.49356372 -272.83229098 597.25354504 C-272.81107769 601.29021351 -272.79287812 605.32683047 -272.78314972 609.36354446 C-272.7740845 613.05373353 -272.75577999 616.74375337 -272.72982684 620.43386126 C-272.71826675 622.41127817 -272.71646869 624.38874456 -272.71493983 626.36619467 C-272.70479075 627.5280806 -272.69464166 628.68996652 -272.68418503 629.88706112 C-272.67952374 630.89603575 -272.67486246 631.90501037 -272.67005992 632.94455999 C-272.64108754 635.51072334 -272.64108754 635.51072334 -270.41015625 637.32421875 C-267.43626683 637.6335092 -267.43626683 637.6335092 -263.87026024 637.58593178 C-263.18753796 637.58992784 -262.50481567 637.5939239 -261.80140483 637.59804106 C-259.49093449 637.60909659 -257.18070041 637.60580274 -254.87020874 637.60269165 C-253.2061853 637.60768992 -251.5421643 637.61356432 -249.87814677 637.62024438 C-245.28781891 637.63611522 -240.69755213 637.63947894 -236.10720015 637.64089298 C-231.16374928 637.64457473 -226.2203324 637.65972399 -221.27690125 637.67350769 C-212.70618416 637.69582302 -204.13547911 637.71081055 -195.56473923 637.72087479 C-183.17276588 637.73543663 -170.78083441 637.76096635 -158.38888557 637.78920607 C-138.2856353 637.83471954 -118.18237902 637.87131547 -98.07910156 637.90234375 C-78.54621321 637.93251067 -59.01333958 637.96685236 -39.48046875 638.00683594 C-38.27723498 638.00929749 -37.07400121 638.01175903 -35.83430581 638.01429518 C-29.79826622 638.02666942 -23.7622268 638.03912602 -17.72618747 638.05162358 C32.37913572 638.15525955 82.48447729 638.24444026 132.58984375 638.32421875 C121.48785961 660.80932406 98.86861479 679.8792999 75.23828125 688.14697266 C62.26233758 692.2547887 50.28917186 693.47406846 36.68643188 693.47138977 C35.16460209 693.47469293 33.64277316 693.47841945 32.12094533 693.48253125 C27.95114418 693.49250703 23.78135742 693.49626085 19.61154604 693.49892056 C15.109743 693.50283651 10.60795121 693.51241355 6.1061554 693.52113342 C-4.7560528 693.54085603 -15.61826186 693.5509563 -26.48048347 693.55986121 C-31.59863943 693.56424888 -36.71679435 693.56961425 -41.83494949 693.57485008 C-58.85128502 693.59185415 -75.86761992 693.60634968 -92.88396263 693.61359882 C-97.29536312 693.61550862 -101.7067636 693.61742897 -106.11816406 693.61938477 C-107.2145538 693.61986851 -108.31094353 693.62035225 -109.4405572 693.62085065 C-127.21303961 693.6291563 -144.98545485 693.65450593 -162.75790791 693.68696544 C-181.01243114 693.72003335 -199.26692019 693.73804713 -217.52147353 693.74124306 C-227.76771888 693.74340783 -238.0138661 693.75215232 -248.26008224 693.77770424 C-256.98272119 693.79940708 -265.70523813 693.80746348 -274.42790101 693.79773746 C-278.87677627 693.79319228 -283.32539975 693.79509185 -287.77424049 693.8144989 C-291.85045308 693.83212684 -295.92623013 693.83113604 -300.00244732 693.81560161 C-301.47344494 693.81322504 -302.94447269 693.81755169 -304.41542427 693.82943026 C-312.61836272 693.89154606 -320.2493581 693.75849766 -327.41015625 689.32421875 C-335.20780269 681.43723121 -335.7023401 673.36766588 -335.65066528 662.72000122 C-335.65237413 661.43672278 -335.65408298 660.15344434 -335.65584362 658.83127868 C-335.66031009 655.27609681 -335.65232313 651.72103572 -335.64228749 648.16586924 C-335.63364519 644.32953812 -335.63657371 640.49321373 -335.63809204 636.65687561 C-335.6391404 630.01240553 -335.63286894 623.36797475 -335.62161636 616.72351456 C-335.60535766 607.11676317 -335.60015298 597.51003078 -335.59764038 587.90326713 C-335.59326386 572.31668555 -335.57995592 556.7301249 -335.56103516 541.14355469 C-335.54267525 526.00325627 -335.52851928 510.86296355 -335.52001953 495.72265625 C-335.51949408 494.78930298 -335.51896864 493.8559497 -335.51842727 492.89431299 C-335.51581718 488.21192253 -335.51328977 483.52953203 -335.51080346 478.8471415 C-335.4900723 440.00615259 -335.45484793 401.16518705 -335.41015625 362.32421875 C-336.40494492 362.3342115 -336.40494492 362.3342115 -337.41983032 362.34440613 C-344.33045599 362.41084379 -351.24099073 362.45605457 -358.15185547 362.48901367 C-360.73001796 362.5040878 -363.30815487 362.52455042 -365.88623047 362.55053711 C-369.59479086 362.58697961 -373.30301179 362.60395927 -377.01171875 362.6171875 C-378.16193512 362.63267136 -379.31215149 362.64815521 -380.4972229 362.66410828 C-390.57707538 362.66622181 -390.57707538 362.66622181 -395.41015625 359.32421875 C-400.69647972 353.91775157 -402.46699346 349.39012273 -402.78515625 341.94921875 C-402.54971347 332.77934205 -398.44316504 327.80680212 -391.9765625 321.6171875 C-388.41133799 318.43181949 -384.70714024 315.43783179 -380.9765625 312.44921875 C-378.16762166 310.12339864 -375.63694753 307.64215048 -373.1015625 305.02734375 C-364.97701339 296.84650446 -364.97701339 296.84650446 -360.41015625 295.32421875 C-360.41015625 294.66421875 -360.41015625 294.00421875 -360.41015625 293.32421875 C-358.98024036 292.05798654 -357.48621356 290.86418559 -355.97265625 289.69921875 C-349.87512837 284.83383381 -344.24060242 279.55963286 -338.60180664 274.17333984 C-334.56248816 270.32144422 -330.46072304 266.57419665 -326.24291992 262.91845703 C-323.76182451 260.76026427 -321.33535187 258.5448798 -318.91015625 256.32421875 C-315.14665104 252.89157114 -311.34886274 249.50866865 -307.50390625 246.16796875 C-303.98065009 243.0653999 -300.52663184 239.88664716 -297.05859375 236.72265625 C-294.90444318 234.77184732 -292.73297156 232.85028263 -290.53515625 230.94921875 C-286.92443392 227.81398249 -283.41625465 224.57518321 -279.91015625 221.32421875 C-275.80427149 217.51711355 -271.66887702 213.76108692 -267.43359375 210.09765625 C-264.89514454 207.87283783 -262.40373849 205.59918556 -259.91015625 203.32421875 C-256.14665104 199.89157114 -252.34886274 196.50866865 -248.50390625 193.16796875 C-244.98203155 190.0666164 -241.52938603 186.88908542 -238.0625 183.7265625 C-235.88554629 181.75480031 -233.69176951 179.81056538 -231.47265625 177.88671875 C-228.10869803 174.96303318 -224.81623208 171.96518324 -221.53515625 168.94921875 C-221.02686279 168.48290039 -220.51856934 168.01658203 -219.99487305 167.53613281 C-217.48746702 165.23532207 -214.98465022 162.92999993 -212.48828125 160.6171875 C-211.59625 159.79863281 -210.70421875 158.98007812 -209.78515625 158.13671875 C-208.98851562 157.40066406 -208.191875 156.66460937 -207.37109375 155.90625 C-205.41015625 154.32421875 -205.41015625 154.32421875 -203.41015625 154.32421875 C-203.08015625 153.33421875 -202.75015625 152.34421875 -202.41015625 151.32421875 C-200.9140625 149.81640625 -200.9140625 149.81640625 -198.97265625 148.19921875 C-195.78343872 145.493216 -192.63857028 142.7535676 -189.53515625 139.94921875 C-186.20582921 136.94470411 -182.87277559 133.94451816 -179.53515625 130.94921875 C-175.76277266 127.55644608 -172.01939237 124.1337795 -168.28515625 120.69921875 C-164.37910979 117.10821574 -160.44191391 113.56146118 -156.42578125 110.09375 C-154.8557919 108.7154454 -153.30805187 107.31178262 -151.76953125 105.8984375 C-150.8671875 105.06957031 -149.96484375 104.24070312 -149.03515625 103.38671875 C-148.20242188 102.61457031 -147.3696875 101.84242188 -146.51171875 101.046875 C-144.41015625 99.32421875 -144.41015625 99.32421875 -142.41015625 99.32421875 C-142.41015625 98.66421875 -142.41015625 98.00421875 -142.41015625 97.32421875 C-141.01171875 95.9140625 -141.01171875 95.9140625 -139.03515625 94.26171875 C-135.8346928 91.54498089 -132.69709562 88.78086656 -129.59765625 85.94921875 C-125.17828103 81.95268499 -120.61066598 78.17986905 -115.953125 74.46484375 C-113.27769721 72.21271713 -110.8685253 69.81142497 -108.41015625 67.32421875 C-105.82405446 64.84660219 -103.2110997 62.39793905 -100.59765625 59.94921875 C-99.58735352 58.99789062 -99.58735352 58.99789062 -98.55664062 58.02734375 C-94.51181153 54.23410689 -90.40228066 50.53248644 -86.21606445 46.89599609 C-83.92226135 44.89957804 -81.66435043 42.86517834 -79.41015625 40.82421875 C-76.45145874 38.15373531 -73.48089153 35.50123817 -70.47265625 32.88671875 C-67.24456113 30.0759935 -64.07277182 27.20841975 -60.91015625 24.32421875 C-53.39709545 17.48104677 -53.39709545 17.48104677 -49.5625 14.1796875 C-47.89384284 12.74118994 -46.24376916 11.28112154 -44.6015625 9.8125 C-38.65330423 4.57784116 -33.10026737 0.6443851 -25.41015625 -1.67578125 C-17.22891821 -4.4028606 -7.84699812 -3.283986 0 0 Z " fill="#38A035" transform="translate(527.41015625,158.67578125)"/>
<path d="M0 0 C0.65258286 -0.00671722 1.30516571 -0.01343445 1.9775238 -0.02035522 C4.12986926 -0.03931556 6.28190245 -0.04325861 8.43432617 -0.04541016 C9.93641791 -0.0518404 11.4385084 -0.05856893 12.94059753 -0.06558228 C16.08868308 -0.07755077 19.23665894 -0.08126364 22.38476562 -0.08007812 C26.40641142 -0.07987517 30.42734868 -0.10715403 34.44882679 -0.14162254 C37.55192758 -0.16393197 40.65485909 -0.16791441 43.75803185 -0.16685867 C45.23992029 -0.16920945 46.72181378 -0.17800343 48.20362282 -0.19352341 C62.87526308 -0.33277884 62.87526308 -0.33277884 68.41479492 4.29052734 C70.70020201 7.73305226 70.67337637 10.74611051 70.68945312 14.81567383 C70.69456406 15.4617157 70.69967499 16.10775757 70.7049408 16.77337646 C70.71880827 18.90288633 70.71788225 21.03207152 70.71557617 23.16162109 C70.71946467 24.64608378 70.72379966 26.13054535 70.7285614 27.61500549 C70.73601747 30.72441212 70.73573681 33.83370518 70.73046875 36.94311523 C70.72467478 40.92224881 70.7416059 44.9009168 70.76481342 48.87997341 C70.77956531 51.94524338 70.78042051 55.01040159 70.7773037 58.07570076 C70.77781618 59.54248031 70.78304019 61.00926624 70.79311562 62.47601128 C70.80549158 64.52964158 70.7986826 66.58236981 70.78710938 68.63598633 C70.7877388 69.80306625 70.78836823 70.97014618 70.78901672 72.17259216 C70.2657308 76.53249737 68.70307205 78.97850834 65.66281128 82.07479858 C62.52053225 83.7741452 60.01070973 83.70104993 56.4465332 83.7421875 C55.75332977 83.75386963 55.06012634 83.76555176 54.34591675 83.77758789 C52.05883893 83.81112748 49.77240938 83.82190532 47.48510742 83.82958984 C45.89093805 83.84177394 44.29677095 83.85426007 42.7026062 83.86703491 C39.36198799 83.88950007 36.02159771 83.89906383 32.6809082 83.90136719 C28.40754547 83.90664972 24.13608736 83.95797838 19.86323738 84.02088356 C16.57055253 84.06181927 13.27832524 84.07100989 9.98540878 84.07148361 C8.4105307 84.07685823 6.83564727 84.09368182 5.26102066 84.12233353 C-8.55999468 84.35285059 -8.55999468 84.35285059 -12.55200195 80.71630859 C-16.23367701 74.87272988 -15.40136281 67.34856616 -15.31176758 60.68896484 C-15.31072895 59.16395062 -15.31176987 57.63893371 -15.31478882 56.11392212 C-15.31460999 52.9279143 -15.29387789 49.7429252 -15.25756836 46.55712891 C-15.21211516 42.48030276 -15.21112501 38.40495768 -15.22460365 34.32794762 C-15.23129528 31.18279933 -15.21800239 28.03798688 -15.19834518 24.89290237 C-15.19066725 23.38986596 -15.18833394 21.88679213 -15.19151688 20.38373947 C-15.19226132 18.28212358 -15.16694428 16.18238713 -15.13452148 14.08105469 C-15.12069931 12.29071304 -15.12069931 12.29071304 -15.1065979 10.46420288 C-14.47640723 6.62828374 -13.32362488 5.01031459 -10.58520508 2.29052734 C-7.20215801 -0.09130537 -4.06526616 0.02630858 0 0 Z " fill="#37A035" transform="translate(429.585205078125,592.70947265625)"/>
<path d="M0 0 C0.70441727 -0.00832352 1.40883453 -0.01664703 2.13459778 -0.02522278 C4.46429973 -0.04932669 6.79372172 -0.05809526 9.12353516 -0.06469727 C10.7439482 -0.07366343 12.3643604 -0.08278527 13.98477173 -0.09205627 C17.38260917 -0.10854995 20.78034804 -0.11624704 24.17822266 -0.11914062 C28.52865302 -0.12452444 32.87815483 -0.16220172 37.22832298 -0.20788479 C40.57582976 -0.23765286 43.92311288 -0.24486412 47.27074051 -0.24586678 C48.87431719 -0.25006975 50.4778945 -0.26250733 52.08134079 -0.28338432 C54.3270535 -0.31029554 56.57061369 -0.30547652 58.81640625 -0.29296875 C60.09309174 -0.2980394 61.36977722 -0.30311005 62.68515015 -0.30833435 C66.91028078 0.46641845 68.36137315 2.0263106 71.03759766 5.30639648 C72.46336126 8.15792368 72.18858328 10.60018718 72.21459961 13.78808594 C72.22117081 14.4533429 72.227742 15.11859985 72.23451233 15.80401611 C72.25424926 18.00923777 72.26590903 20.2143913 72.27587891 22.41967773 C72.27995443 23.17284964 72.28402996 23.92602154 72.28822899 24.70201683 C72.30909196 28.68887432 72.32339235 32.67569737 72.33276367 36.66259766 C72.3438255 40.77861429 72.37822148 44.89408991 72.41793537 49.00991535 C72.44409452 52.17639667 72.45245487 55.34274898 72.45604515 58.50932884 C72.4609134 60.02637572 72.47253432 61.54341676 72.49108315 63.06035805 C72.51546025 65.18618101 72.5145132 67.31060318 72.50756836 69.43652344 C72.5134346 70.64516556 72.51930084 71.85380768 72.52534485 73.09907532 C71.94277315 76.92994215 70.72598236 78.5698969 68.03759766 81.30639648 C65.09981726 82.77528668 62.46874153 82.46624329 59.1887207 82.49926758 C58.48444946 82.50744507 57.78017822 82.51562256 57.05456543 82.52404785 C54.71949109 82.54889835 52.38447753 82.56541703 50.04931641 82.57983398 C49.25201426 82.58515766 48.4547121 82.59048134 47.63324928 82.59596634 C43.41298 82.62269668 39.19274029 82.64207174 34.97241211 82.65649414 C30.61415543 82.67314033 26.2566552 82.71791727 21.8986845 82.76886559 C18.54691199 82.80252864 15.19531922 82.81407046 11.84339333 82.81972122 C10.23701001 82.82643658 8.63063865 82.84166626 7.02441978 82.86561203 C4.77387312 82.8972486 2.52536903 82.89730401 0.2746582 82.88989258 C-1.00504349 82.89797943 -2.28474518 82.90606628 -3.60322571 82.91439819 C-7.83706403 82.14808513 -9.28340451 80.59268394 -11.96240234 77.30639648 C-13.3780807 74.47503977 -13.10534511 72.08268465 -13.12353516 68.91650391 C-13.12850006 68.26100052 -13.13346497 67.60549713 -13.13858032 66.93013 C-13.15320779 64.75736446 -13.16000549 62.58467197 -13.16552734 60.41186523 C-13.1712791 58.90212502 -13.17703683 57.39238482 -13.18280029 55.88264465 C-13.19331248 52.71424011 -13.19915345 49.54586094 -13.20263672 46.37744141 C-13.20811656 42.32205565 -13.23213244 38.26700649 -13.26060867 34.21172619 C-13.2792562 31.09156829 -13.28444181 27.97149103 -13.2859726 24.85128212 C-13.28899579 23.3565824 -13.29701312 21.86188398 -13.31015778 20.367239 C-13.32726032 18.27272538 -13.32532815 16.17902825 -13.31884766 14.08447266 C-13.32249329 12.89359543 -13.32613892 11.7027182 -13.32989502 10.47575378 C-12.92165098 6.95494561 -12.08827782 5.1167356 -9.96240234 2.30639648 C-6.27377791 -0.15268647 -4.40404597 0.03674879 0 0 Z " fill="#37A034" transform="translate(427.96240234375,485.693603515625)"/>
<path d="M0 0 C0.6445816 -0.00511093 1.28916321 -0.01022186 1.95327759 -0.01548767 C4.07254461 -0.02932601 6.19148433 -0.02843136 8.31079102 -0.02612305 C9.79142883 -0.03001308 11.27206553 -0.03434838 12.75270081 -0.03910828 C15.85193504 -0.04655803 18.95105533 -0.04628823 22.05029297 -0.04101562 C26.01248497 -0.03522176 29.97420939 -0.05215562 33.93632412 -0.0753603 C36.99305425 -0.09012603 40.04967248 -0.09096551 43.10643196 -0.08785057 C44.56680286 -0.08836233 46.02718027 -0.09357273 47.4875164 -0.10366249 C49.53364923 -0.11606577 51.57888049 -0.10921328 53.625 -0.09765625 C54.78684311 -0.09828568 55.94868622 -0.0989151 57.14573669 -0.0995636 C60.86291029 0.33090658 63.22886506 1.26343158 66.37719727 3.2746582 C68.91687144 6.57356134 68.64238701 10.02183185 68.66772461 14.07519531 C68.67444183 14.75049789 68.68115906 15.42580048 68.68807983 16.12156677 C68.70703959 18.34845383 68.71098276 20.57503926 68.71313477 22.80200195 C68.71956346 24.35372541 68.72629188 25.90544766 68.73330688 27.45716858 C68.7452741 30.70780243 68.74898822 33.95833005 68.74780273 37.20898438 C68.74759942 41.36982085 68.77491574 45.52997521 68.80934715 49.69064999 C68.83160664 52.89489356 68.8356406 56.09897262 68.83458328 59.3032856 C68.83694013 60.8370658 68.84576851 62.37085047 68.86124802 63.90455437 C68.88089282 66.051762 68.87507805 68.19749408 68.86303711 70.34472656 C68.86588715 71.56510117 68.86873718 72.78547577 68.87167358 74.04283142 C68.28354517 77.88675495 67.07702781 79.53004486 64.37719727 82.2746582 C61.48714764 83.71968302 58.95697767 83.43400507 55.7277832 83.4675293 C55.0446254 83.47570679 54.36146759 83.48388428 53.65760803 83.49230957 C51.39227169 83.517161 49.12699808 83.53368048 46.86157227 83.5480957 C46.08758339 83.55341938 45.31359451 83.55874306 44.51615143 83.56422806 C40.41792287 83.59096098 36.31972477 83.61033373 32.22143555 83.62475586 C27.99330217 83.64138728 23.76595077 83.68615092 19.53811264 83.7371273 C16.28323499 83.77082854 13.02854211 83.78233644 9.77350616 83.78798294 C8.21539599 83.79468958 6.65729772 83.80989659 5.0993576 83.83387375 C2.91365946 83.86558777 0.73005841 83.86555413 -1.45581055 83.8581543 C-2.69776184 83.86624115 -3.93971313 83.874328 -5.21929932 83.88265991 C-9.77585066 83.06867777 -11.3914563 81.55107617 -14.62280273 78.2746582 C-15.73523332 74.93736644 -15.77009863 72.39590568 -15.79980469 68.87890625 C-15.80637589 68.2346167 -15.81294708 67.59032715 -15.81971741 66.92651367 C-15.83941119 64.79646684 -15.85110419 62.66649039 -15.86108398 60.53637695 C-15.86515951 59.8074354 -15.86923504 59.07849384 -15.87343407 58.32746315 C-15.89427816 54.46912547 -15.90858699 50.61082318 -15.91796875 46.75244141 C-15.9290295 42.77442692 -15.96342956 38.79697237 -16.00314045 34.81915569 C-16.02932793 31.75386031 -16.03766243 28.68869795 -16.04125023 25.62330055 C-16.04611077 24.15731843 -16.05770972 22.69134204 -16.07628822 21.22546959 C-16.10072712 19.16939705 -16.09970726 17.1147681 -16.09277344 15.05859375 C-16.09863968 13.89071823 -16.10450592 12.72284271 -16.11054993 11.51957703 C-15.50446271 7.48735736 -14.24547823 5.37735797 -11.62280273 2.2746582 C-7.81697338 0.06253558 -4.34584084 0.01724562 0 0 Z " fill="#37A035" transform="translate(539.622802734375,592.725341796875)"/>
<path d="M0 0 C0.69626999 -0.00350464 1.39253998 -0.00700928 2.10990906 -0.01062012 C4.41199713 -0.01942388 6.71377793 -0.01359255 9.01586914 -0.00683594 C10.61625731 -0.00818313 12.21664509 -0.01012412 13.81703186 -0.01263428 C17.17200617 -0.01558383 20.526874 -0.01129393 23.88183594 -0.00195312 C28.1804882 0.00943215 32.47889047 0.00288681 36.77753353 -0.00909805 C40.08295064 -0.01632909 43.3883086 -0.01402285 46.69372749 -0.00884247 C48.27855013 -0.00750894 49.86337815 -0.00914332 51.4481945 -0.01380157 C53.66482614 -0.01888626 55.8810546 -0.01112914 58.09765625 0 C59.35879745 0.00159119 60.61993866 0.00318237 61.91929626 0.00482178 C64.98272217 0.24838914 66.6534224 0.45901229 69.11352539 2.25878906 C71.58424888 5.65966727 71.38466407 9.05085615 71.41992188 13.15112305 C71.42824539 13.8361792 71.43656891 14.52123535 71.44514465 15.22705078 C71.46919443 17.4863863 71.47800968 19.74543297 71.48461914 22.00488281 C71.49358811 23.57902613 71.50271001 25.15316859 71.51197815 26.72731018 C71.52845617 30.02501496 71.53616629 33.32261833 71.5390625 36.62036133 C71.54445043 40.84185899 71.58215122 45.06240163 71.62780666 49.28362942 C71.65757488 52.53419971 71.66478596 55.7845397 71.66578865 59.03523445 C71.66999016 60.59136398 71.68242189 62.14749425 71.7033062 63.7034893 C71.73022348 65.88205823 71.72539747 68.05840918 71.71289062 70.23706055 C71.71796127 71.47520004 71.72303192 72.71333954 71.72825623 73.98899841 C70.92172473 78.27898845 69.6339574 79.71800429 66.11352539 82.25878906 C62.77453613 82.89370728 62.77453613 82.89370728 58.92407227 82.90576172 C58.21936295 82.91452332 57.51465363 82.92328491 56.78858948 82.93231201 C54.46918371 82.95424127 52.15169905 82.93977887 49.83227539 82.92285156 C48.21471797 82.92622162 46.59716303 82.93107583 44.97961426 82.93734741 C41.59350416 82.94470988 38.20805464 82.93403426 34.82202148 82.91064453 C30.48720471 82.88215612 26.15393574 82.8985636 21.81917572 82.92850685 C18.48016756 82.94659736 15.14152482 82.94081398 11.80250549 82.92786789 C10.20455236 82.92453867 8.60656578 82.92860397 7.00865173 82.94026566 C4.772537 82.9530046 2.53890855 82.93356086 0.30297852 82.90576172 C-0.96767456 82.90178375 -2.23832764 82.89780579 -3.54748535 82.89370728 C-7.77037944 82.09071207 -9.23834569 80.57598701 -11.88647461 77.25878906 C-13.00173171 73.91301776 -13.02700295 71.37329828 -13.04760742 67.84716797 C-13.05257233 67.20127213 -13.05753723 66.55537628 -13.06265259 65.88990784 C-13.07724686 63.75504487 -13.08407146 61.6202562 -13.08959961 59.48535156 C-13.09535315 57.99946084 -13.10111086 56.51357013 -13.10687256 55.02767944 C-13.11737464 51.91232966 -13.12322254 48.79700562 -13.12670898 45.68164062 C-13.13219328 41.69466258 -13.15622293 37.70802611 -13.18468094 33.72115517 C-13.20332744 30.65161146 -13.20851397 27.58214973 -13.21004486 24.51255417 C-13.21306719 23.04297391 -13.22108161 21.57339494 -13.23423004 20.10387039 C-13.25133405 18.04538403 -13.24940036 15.98772831 -13.24291992 13.92919922 C-13.24838837 12.17405502 -13.24838837 12.17405502 -13.25396729 10.38345337 C-12.84307281 6.88975845 -11.99274601 5.05172363 -9.88647461 2.25878906 C-6.20420897 -0.1960547 -4.39302936 0.0055462 0 0 Z " fill="#379F34" transform="translate(536.886474609375,485.7412109375)"/>
<path d="M0 0 C0.64750214 -0.00335861 1.29500427 -0.00671722 1.96212769 -0.01017761 C4.10180583 -0.01967372 6.24140561 -0.02162999 8.38110352 -0.02270508 C9.86939018 -0.0259184 11.35767653 -0.02928253 12.84596252 -0.03279114 C15.96551241 -0.03877891 19.08503461 -0.04063138 22.20458984 -0.04003906 C26.20055814 -0.03993741 30.19634885 -0.05359379 34.19227505 -0.07081127 C37.26606562 -0.08193286 40.33981327 -0.08395823 43.4136219 -0.08342934 C44.886807 -0.08460905 46.35999321 -0.08903037 47.83315849 -0.0967617 C49.89410706 -0.10656571 51.95467014 -0.10368225 54.015625 -0.09765625 C55.77410011 -0.09979378 55.77410011 -0.09979378 57.56809998 -0.10197449 C60.46769787 0.13663852 62.12575772 0.62997486 64.57250977 2.14526367 C61.64162624 3.61070544 59.09915776 3.21900896 55.82788086 3.16699219 C55.1350853 3.15738464 54.44228973 3.1477771 53.72850037 3.13787842 C51.43421394 3.10484714 49.1401155 3.06453071 46.84594727 3.02416992 C45.25697496 2.99987283 43.66799567 2.97602907 42.07901001 2.95262146 C37.89335171 2.88973961 33.70781693 2.82068462 29.52227783 2.75036621 C25.25262078 2.67971976 20.98287604 2.61488074 16.71313477 2.54956055 C8.33282935 2.42049536 -0.04735452 2.28491194 -8.42749023 2.14526367 C-8.69561523 2.78463867 -8.96374023 3.42401367 -9.23999023 4.08276367 C-10.42749023 6.14526367 -10.42749023 6.14526367 -13.42749023 7.14526367 C-13.75749023 7.80526367 -14.08749023 8.46526367 -14.42749023 9.14526367 C-14.09308764 6.05203963 -13.86797844 4.55638599 -11.55249023 2.39526367 C-7.63291399 0.08963058 -4.46466294 0.01452675 0 0 Z " fill="#269824" transform="translate(539.427490234375,592.854736328125)"/>
<path d="M0 0 C0.99 0.66 1.98 1.32 3 2 C1.625 3.5 1.625 3.5 0 5 C-0.66 5 -1.32 5 -2 5 C-2.33 5.66 -2.66 6.32 -3 7 C-2.25 2.25 -2.25 2.25 0 0 Z " fill="#2C9929" transform="translate(528,595)"/>
</svg>
